<?xml version="1.0" encoding="UTF-8"?>
<svg id="Layer_2" data-name="Layer 2" xmlns="http://www.w3.org/2000/svg" viewBox="0 0 1080 1080">
  <defs>
    <style>
      .cls-1 {
        fill: #cf2027;
      }

      .cls-2 {
        fill: #fff;
      }

      .cls-3 {
        fill: #818181;
      }
    </style>
  </defs>
  <g id="Layer_1-2" data-name="Layer 1">
    <g>
      <rect class="cls-1" width="1080" height="1080"/>
      <g>
        <g>
          <path class="cls-2" d="m271.24,1003.65v6.19h-26.89v-38.34h26.31v6.19h-20.01l.69-.69v27.35l-.69-.69h20.59Zm-2.49-16.48v6.01h-18.27v-6.01h18.27Z"/>
          <path class="cls-2" d="m276.04,982.72h5.78l.52,3.3c.27-.38.65-.81,1.13-1.27.48-.46,1.09-.89,1.82-1.27.73-.38,1.57-.7,2.52-.95.94-.25,1.98-.38,3.09-.38,1.81,0,3.42.27,4.83.81,1.41.54,2.59,1.3,3.56,2.28.96.98,1.7,2.17,2.2,3.56.5,1.39.75,2.91.75,4.57v16.48h-6.59v-15.03c0-2.12-.55-3.74-1.65-4.86-1.1-1.12-2.59-1.68-4.48-1.68-.93,0-1.78.14-2.57.43-.79.29-1.5.71-2.14,1.27-.64.56-1.13,1.24-1.47,2.05-.35.81-.52,1.72-.52,2.72l-.12,15.09h-6.65v-27.12Z"/>
          <path class="cls-2" d="m329.12,1006.37c-.96,1.2-2.21,2.17-3.73,2.92-1.52.75-3.38,1.13-5.58,1.13-1.93,0-3.7-.36-5.32-1.07-1.62-.71-3.03-1.7-4.22-2.95-1.2-1.25-2.13-2.76-2.8-4.51-.67-1.75-1.01-3.65-1.01-5.7s.34-3.98,1.01-5.7c.67-1.71,1.61-3.2,2.8-4.45,1.19-1.25,2.6-2.22,4.22-2.89,1.62-.67,3.39-1.01,5.32-1.01,2.24,0,4.09.38,5.55,1.13,1.46.75,2.68,1.73,3.64,2.92v-16.13h6.65v39.78h-6.3l-.23-3.47Zm-4.94-2.46c.98-.44,1.83-1.04,2.54-1.79.71-.75,1.27-1.64,1.68-2.66.4-1.02.61-2.11.61-3.27s-.2-2.23-.61-3.24c-.41-1-.96-1.87-1.68-2.6-.71-.73-1.57-1.31-2.57-1.73-1-.42-2.08-.64-3.24-.64s-2.28.21-3.27.64c-.98.42-1.82,1-2.52,1.73-.69.73-1.23,1.6-1.62,2.6-.39,1-.58,2.08-.58,3.24s.19,2.25.58,3.27c.38,1.02.93,1.91,1.62,2.66.69.75,1.53,1.35,2.52,1.79.98.44,2.07.66,3.27.66s2.28-.22,3.27-.66Z"/>
          <path class="cls-2" d="m350.29,982.72h4.92v-7.52l6.48-1.27v8.79h8.44v5.55h-8.44v11.51c0,1.81.53,3.06,1.59,3.73,1.06.68,2.4,1.01,4.02,1.01.35,0,.7-.02,1.07-.06.37-.04.7-.1,1.01-.17v5.78c-.5.12-1.07.21-1.71.29-.64.08-1.22.12-1.76.12-1.62,0-3.09-.2-4.42-.61-1.33-.4-2.46-1.03-3.38-1.88-.93-.85-1.66-1.93-2.2-3.24-.54-1.31-.81-2.87-.81-4.68v-11.8h-4.8v-5.55Z"/>
          <path class="cls-2" d="m372.84,990.7c.73-1.74,1.74-3.23,3.04-4.48,1.29-1.25,2.82-2.25,4.6-2.98,1.77-.73,3.72-1.1,5.84-1.1s4.01.37,5.78,1.1c1.77.73,3.31,1.73,4.6,2.98,1.29,1.25,2.3,2.75,3.04,4.48.73,1.73,1.1,3.6,1.1,5.61s-.37,3.87-1.1,5.58c-.73,1.72-1.74,3.21-3.04,4.48-1.29,1.27-2.82,2.26-4.6,2.98-1.77.71-3.7,1.07-5.78,1.07s-4.07-.36-5.84-1.07c-1.77-.71-3.31-1.71-4.6-2.98-1.29-1.27-2.3-2.77-3.04-4.48-.73-1.71-1.1-3.58-1.1-5.58s.37-3.87,1.1-5.61Zm16.68,13.07c.98-.42,1.82-.99,2.52-1.71.69-.71,1.24-1.57,1.65-2.57s.61-2.06.61-3.18-.2-2.24-.61-3.24c-.4-1-.95-1.86-1.65-2.57-.69-.71-1.53-1.28-2.52-1.71-.98-.42-2.05-.64-3.21-.64s-2.28.21-3.27.64c-.98.42-1.82.99-2.52,1.71-.69.71-1.24,1.57-1.65,2.57-.4,1-.61,2.08-.61,3.24s.2,2.18.61,3.18.95,1.86,1.65,2.57c.69.71,1.53,1.28,2.52,1.71.98.42,2.07.64,3.27.64s2.23-.21,3.21-.64Z"/>
          <path class="cls-2" d="m420.49,993.59h15.32c-.12-.93-.4-1.75-.84-2.49-.44-.73-1-1.35-1.68-1.85-.67-.5-1.43-.89-2.26-1.16-.83-.27-1.67-.4-2.52-.4-1.23,0-2.32.22-3.27.66-.94.44-1.73,1.05-2.34,1.82-.62.77-1.08,1.67-1.39,2.69-.31,1.02-.46,2.11-.46,3.27,0,1.23.16,2.37.49,3.41.33,1.04.82,1.94,1.47,2.69.66.75,1.46,1.34,2.43,1.76.96.42,2.1.64,3.41.64,1.46,0,2.73-.29,3.79-.87s1.92-1.43,2.57-2.54l6.77-.06c-.93,2.89-2.59,5.16-5,6.79-2.41,1.64-5.27,2.46-8.59,2.46-2.24,0-4.22-.4-5.96-1.18-1.73-.79-3.18-1.84-4.34-3.15-1.16-1.31-2.03-2.81-2.63-4.51-.6-1.7-.9-3.45-.9-5.26s.31-3.62.92-5.32c.62-1.7,1.51-3.2,2.69-4.51,1.18-1.31,2.63-2.36,4.37-3.15,1.73-.79,3.74-1.18,6.01-1.18,2.08,0,3.97.33,5.67.98,1.7.66,3.15,1.59,4.37,2.8s2.15,2.66,2.8,4.34c.66,1.68.98,3.52.98,5.52,0,.42,0,.81-.03,1.16-.02.35-.07.69-.14,1.04h-21.86l.12-4.39Z"/>
          <path class="cls-2" d="m446.97,982.72h5.78l.52,3.3c.27-.38.65-.81,1.13-1.27.48-.46,1.09-.89,1.82-1.27.73-.38,1.57-.7,2.52-.95.94-.25,1.98-.38,3.09-.38,1.81,0,3.42.27,4.83.81,1.41.54,2.59,1.3,3.56,2.28.96.98,1.7,2.17,2.2,3.56.5,1.39.75,2.91.75,4.57v16.48h-6.59v-15.03c0-2.12-.55-3.74-1.65-4.86-1.1-1.12-2.59-1.68-4.48-1.68-.93,0-1.78.14-2.57.43-.79.29-1.5.71-2.14,1.27-.64.56-1.13,1.24-1.47,2.05-.35.81-.52,1.72-.52,2.72l-.12,15.09h-6.65v-27.12Z"/>
          <path class="cls-2" d="m500.05,1006.37c-.96,1.2-2.21,2.17-3.73,2.92-1.52.75-3.38,1.13-5.58,1.13-1.93,0-3.7-.36-5.32-1.07-1.62-.71-3.03-1.7-4.22-2.95-1.2-1.25-2.13-2.76-2.8-4.51-.67-1.75-1.01-3.65-1.01-5.7s.34-3.98,1.01-5.7c.67-1.71,1.61-3.2,2.8-4.45,1.19-1.25,2.6-2.22,4.22-2.89,1.62-.67,3.39-1.01,5.32-1.01,2.24,0,4.09.38,5.55,1.13,1.46.75,2.68,1.73,3.64,2.92v-16.13h6.65v39.78h-6.3l-.23-3.47Zm-4.94-2.46c.98-.44,1.83-1.04,2.54-1.79.71-.75,1.27-1.64,1.68-2.66.4-1.02.61-2.11.61-3.27s-.2-2.23-.61-3.24c-.41-1-.96-1.87-1.68-2.6-.71-.73-1.57-1.31-2.57-1.73-1-.42-2.08-.64-3.24-.64s-2.28.21-3.27.64c-.98.42-1.82,1-2.52,1.73-.69.73-1.23,1.6-1.62,2.6-.39,1-.58,2.08-.58,3.24s.19,2.25.58,3.27c.38,1.02.93,1.91,1.62,2.66.69.75,1.53,1.35,2.52,1.79.98.44,2.07.66,3.27.66s2.28-.22,3.27-.66Z"/>
          <path class="cls-2" d="m529.78,998.04c.04.96.28,1.83.72,2.6.44.77,1.02,1.43,1.74,1.97.71.54,1.53.94,2.46,1.19s1.93.38,3.01.38c.96,0,1.89-.11,2.78-.32.89-.21,1.67-.55,2.34-1.01.67-.46,1.21-1.03,1.62-1.71.4-.67.61-1.45.61-2.34,0-1.04-.31-1.88-.92-2.52-.62-.64-1.37-1.18-2.26-1.62-.89-.44-1.84-.78-2.86-1.01-1.02-.23-1.98-.46-2.86-.69-1.5-.35-3.04-.75-4.6-1.21-1.56-.46-2.97-1.09-4.22-1.88-1.25-.79-2.27-1.82-3.06-3.09-.79-1.27-1.19-2.91-1.19-4.92,0-1.7.33-3.23.98-4.6.66-1.37,1.6-2.51,2.83-3.44,1.23-.93,2.72-1.64,4.45-2.14,1.74-.5,3.68-.75,5.84-.75s4.04.27,5.75.81c1.71.54,3.16,1.31,4.34,2.31,1.18,1,2.09,2.21,2.75,3.61.66,1.41,1.02,3,1.1,4.77h-7.23c-.04-.89-.24-1.67-.61-2.34-.37-.67-.87-1.24-1.5-1.71-.64-.46-1.37-.81-2.2-1.04-.83-.23-1.71-.35-2.63-.35s-1.73.1-2.54.29c-.81.19-1.53.48-2.17.87-.64.39-1.14.88-1.5,1.47-.37.6-.55,1.3-.55,2.11,0,.96.3,1.75.9,2.37.6.62,1.34,1.13,2.23,1.53s1.83.71,2.83.93c1,.21,1.89.43,2.66.66,1.58.35,3.16.76,4.74,1.24,1.58.48,3.03,1.13,4.34,1.94,1.31.81,2.37,1.87,3.18,3.18.81,1.31,1.21,2.99,1.21,5.03,0,1.89-.38,3.58-1.13,5.06-.75,1.48-1.78,2.72-3.09,3.7-1.31.98-2.86,1.73-4.65,2.26-1.79.52-3.73.78-5.81.78-2.24,0-4.27-.29-6.1-.87-1.83-.58-3.39-1.41-4.68-2.49-1.29-1.08-2.32-2.38-3.09-3.9-.77-1.52-1.2-3.23-1.27-5.12h7.34Z"/>
          <path class="cls-2" d="m557.42,971.5h6.07l14.86,18.16h-.93l14.86-18.16h6.07v38.34h-6.94v-27.7l.46.17-13.47,15.79h-1.21l-13.3-15.79.46-.17v27.7h-6.94v-38.34Z"/>
          <path class="cls-2" d="m610.96,998.04c.04.96.28,1.83.72,2.6.44.77,1.02,1.43,1.74,1.97.71.54,1.53.94,2.46,1.19s1.93.38,3.01.38c.96,0,1.89-.11,2.78-.32.89-.21,1.67-.55,2.34-1.01.67-.46,1.21-1.03,1.62-1.71.4-.67.61-1.45.61-2.34,0-1.04-.31-1.88-.92-2.52-.62-.64-1.37-1.18-2.26-1.62-.89-.44-1.84-.78-2.86-1.01-1.02-.23-1.98-.46-2.86-.69-1.5-.35-3.04-.75-4.6-1.21-1.56-.46-2.97-1.09-4.22-1.88-1.25-.79-2.27-1.82-3.06-3.09-.79-1.27-1.19-2.91-1.19-4.92,0-1.7.33-3.23.98-4.6.66-1.37,1.6-2.51,2.83-3.44,1.23-.93,2.72-1.64,4.45-2.14,1.74-.5,3.68-.75,5.84-.75s4.04.27,5.75.81c1.71.54,3.16,1.31,4.34,2.31,1.18,1,2.09,2.21,2.75,3.61.66,1.41,1.02,3,1.1,4.77h-7.23c-.04-.89-.24-1.67-.61-2.34-.37-.67-.87-1.24-1.5-1.71-.64-.46-1.37-.81-2.2-1.04-.83-.23-1.71-.35-2.63-.35s-1.73.1-2.54.29c-.81.19-1.53.48-2.17.87-.64.39-1.14.88-1.5,1.47-.37.6-.55,1.3-.55,2.11,0,.96.3,1.75.9,2.37.6.62,1.34,1.13,2.23,1.53s1.83.71,2.83.93c1,.21,1.89.43,2.66.66,1.58.35,3.16.76,4.74,1.24,1.58.48,3.03,1.13,4.34,1.94,1.31.81,2.37,1.87,3.18,3.18.81,1.31,1.21,2.99,1.21,5.03,0,1.89-.38,3.58-1.13,5.06-.75,1.48-1.78,2.72-3.09,3.7-1.31.98-2.86,1.73-4.65,2.26-1.79.52-3.73.78-5.81.78-2.24,0-4.27-.29-6.1-.87-1.83-.58-3.39-1.41-4.68-2.49-1.29-1.08-2.32-2.38-3.09-3.9-.77-1.52-1.2-3.23-1.27-5.12h7.34Z"/>
          <path class="cls-2" d="m638.6,971.5h27v6.19h-20.7l.69-.69v32.85h-7v-38.34Zm22.67,15.84v6.13h-16.54v-6.13h16.54Z"/>
          <path class="cls-2" d="m679.89,971.5h17.58c1.89,0,3.64.32,5.26.95s3.03,1.52,4.22,2.66c1.19,1.14,2.13,2.49,2.8,4.05.67,1.56,1.01,3.27,1.01,5.12s-.33,3.56-.98,5.12c-.66,1.56-1.58,2.91-2.78,4.05-1.2,1.14-2.6,2.02-4.22,2.66-1.62.64-3.39.95-5.32.95h-11.45v-6.13h10.52c2.08,0,3.77-.62,5.06-1.85,1.29-1.23,1.94-2.81,1.94-4.74s-.65-3.52-1.94-4.77c-1.29-1.25-2.98-1.88-5.06-1.88h-10.35l.69-.69v32.85h-7v-38.34Z"/>
          <path class="cls-2" d="m713.2,990.7c.73-1.74,1.74-3.23,3.04-4.48,1.29-1.25,2.82-2.25,4.6-2.98,1.77-.73,3.72-1.1,5.84-1.1s4.01.37,5.78,1.1c1.77.73,3.31,1.73,4.6,2.98,1.29,1.25,2.3,2.75,3.04,4.48.73,1.73,1.1,3.6,1.1,5.61s-.37,3.87-1.1,5.58c-.73,1.72-1.74,3.21-3.04,4.48-1.29,1.27-2.82,2.26-4.6,2.98-1.77.71-3.7,1.07-5.78,1.07s-4.07-.36-5.84-1.07c-1.77-.71-3.31-1.71-4.6-2.98-1.29-1.27-2.3-2.77-3.04-4.48-.73-1.71-1.1-3.58-1.1-5.58s.37-3.87,1.1-5.61Zm16.68,13.07c.98-.42,1.82-.99,2.52-1.71.69-.71,1.24-1.57,1.65-2.57s.61-2.06.61-3.18-.2-2.24-.61-3.24c-.4-1-.95-1.86-1.65-2.57-.69-.71-1.53-1.28-2.52-1.71-.98-.42-2.05-.64-3.21-.64s-2.28.21-3.27.64c-.98.42-1.82.99-2.52,1.71-.69.71-1.24,1.57-1.65,2.57-.4,1-.61,2.08-.61,3.24s.2,2.18.61,3.18.95,1.86,1.65,2.57c.69.71,1.53,1.28,2.52,1.71.98.42,2.07.64,3.27.64s2.23-.21,3.21-.64Z"/>
          <path class="cls-2" d="m745.7,1009.84v-27.12h5.84l.58,4.86c.69-1.7,1.77-3.03,3.24-3.99,1.46-.96,3.26-1.45,5.38-1.45.38,0,.74.02,1.07.06.33.04.59.1.78.17v6.01c-.12-.04-.32-.08-.61-.12-.29-.04-.57-.06-.84-.06-1.31,0-2.51.21-3.59.64-1.08.42-2,1.03-2.78,1.82-.77.79-1.37,1.74-1.79,2.83-.42,1.1-.64,2.34-.64,3.73v12.61h-6.65Z"/>
          <path class="cls-2" d="m763.39,982.72h4.92v-7.52l6.48-1.27v8.79h8.44v5.55h-8.44v11.51c0,1.81.53,3.06,1.59,3.73,1.06.68,2.4,1.01,4.02,1.01.35,0,.7-.02,1.07-.06.37-.04.7-.1,1.01-.17v5.78c-.5.12-1.07.21-1.71.29-.64.08-1.22.12-1.76.12-1.62,0-3.09-.2-4.42-.61-1.33-.4-2.46-1.03-3.38-1.88-.93-.85-1.66-1.93-2.2-3.24-.54-1.31-.81-2.87-.81-4.68v-11.8h-4.8v-5.55Z"/>
          <path class="cls-2" d="m805.03,993.65v4.45h-8.91c-1.31,0-2.28.31-2.92.93-.64.62-.95,1.48-.95,2.6,0,.66.13,1.21.38,1.65.25.44.6.8,1.04,1.07.44.27.95.47,1.53.61.58.14,1.16.2,1.73.2.96,0,1.89-.15,2.78-.46.89-.31,1.66-.74,2.31-1.3.66-.56,1.18-1.25,1.56-2.08.38-.83.58-1.74.58-2.75v-6.13c0-.81-.15-1.5-.46-2.08-.31-.58-.72-1.07-1.24-1.47-.52-.4-1.12-.7-1.79-.9-.67-.19-1.38-.29-2.11-.29-.58,0-1.18.07-1.79.2-.62.14-1.18.35-1.68.64-.5.29-.94.65-1.3,1.07-.37.42-.59.96-.66,1.62h-6.42c.19-1.58.66-2.95,1.39-4.11.73-1.16,1.66-2.11,2.78-2.86,1.12-.75,2.36-1.3,3.73-1.65,1.37-.35,2.79-.52,4.25-.52,1.7,0,3.27.21,4.71.64s2.7,1.07,3.76,1.94c1.06.87,1.9,1.97,2.52,3.3.62,1.33.93,2.9.93,4.71v9.83c0,.73.16,1.3.49,1.71.33.4.84.63,1.53.66h.26c.1,0,.2-.02.32-.06v5.26c-.39.04-.78.08-1.19.12-.4.04-.82.06-1.24.06-1.54,0-2.89-.3-4.05-.9-1.16-.6-1.89-1.74-2.2-3.44-.5.81-1.09,1.49-1.76,2.05-.67.56-1.42,1.02-2.23,1.39-.81.37-1.66.63-2.54.78-.89.15-1.77.23-2.66.23-1.23,0-2.45-.15-3.64-.46-1.2-.31-2.27-.78-3.24-1.42-.96-.64-1.74-1.46-2.34-2.49-.6-1.02-.9-2.25-.9-3.67,0-1.54.27-2.86.81-3.96.54-1.1,1.27-2,2.2-2.69.93-.69,2-1.2,3.24-1.53,1.23-.33,2.54-.49,3.93-.49h9.48Z"/>
          <path class="cls-2" d="m817.75,970.05h6.65v39.78h-6.65v-39.78Z"/>
          <path class="cls-2" d="m830.7,1009.29c-.73-.75-1.1-1.67-1.1-2.75s.37-1.99,1.1-2.75c.73-.75,1.66-1.13,2.78-1.13s2.05.38,2.8,1.13,1.13,1.67,1.13,2.75-.38,1.99-1.13,2.75-1.69,1.13-2.8,1.13-2.04-.38-2.78-1.13Z"/>
        </g>
        <g>
          <path class="cls-2" d="m266,912.21c-3.59-1.73-6.51-4.04-8.74-6.93v35.4h-16.09v-92.92h14.42l1.12,8.96c2.05-3.17,4.92-5.69,8.61-7.56,3.68-1.87,8.28-2.8,13.78-2.8,4.76,0,9.14.86,13.15,2.59,4.01,1.73,7.46,4.11,10.36,7.14,2.89,3.03,5.15,6.67,6.79,10.91,1.63,4.25,2.45,8.89,2.45,13.93s-.82,9.49-2.45,13.64c-1.63,4.15-3.9,7.75-6.79,10.78-2.89,3.03-6.3,5.36-10.22,7-3.92,1.63-8.21,2.45-12.87,2.45-5.41,0-9.91-.86-13.51-2.59Zm18.75-13.09c2.38-1.02,4.38-2.42,6.02-4.2,1.63-1.77,2.91-3.87,3.85-6.3.93-2.43,1.4-4.99,1.4-7.7s-.47-5.44-1.4-7.91c-.93-2.47-2.22-4.62-3.85-6.44-1.64-1.82-3.64-3.29-6.02-4.41-2.38-1.12-5.02-1.68-7.91-1.68s-5.55.56-7.98,1.68c-2.43,1.12-4.5,2.59-6.23,4.41-1.73,1.82-3.08,3.97-4.06,6.44-.98,2.47-1.47,5.11-1.47,7.91s.49,5.27,1.47,7.7c.98,2.43,2.33,4.53,4.06,6.3,1.73,1.77,3.8,3.17,6.23,4.2,2.42,1.03,5.08,1.54,7.98,1.54s5.53-.51,7.91-1.54Z"/>
          <path class="cls-2" d="m322.88,913.4v-65.63h14.13l1.4,11.76c1.68-4.11,4.29-7.32,7.84-9.66,3.55-2.33,7.88-3.5,13.01-3.5.93,0,1.8.05,2.59.14.79.09,1.42.24,1.89.42v14.55c-.28-.09-.77-.18-1.47-.28-.7-.09-1.38-.14-2.03-.14-3.17,0-6.07.51-8.68,1.54-2.61,1.03-4.85,2.5-6.72,4.41-1.87,1.91-3.31,4.2-4.34,6.86-1.03,2.66-1.54,5.67-1.54,9.03v30.51h-16.09Z"/>
          <path class="cls-2" d="m368.51,867.08c1.77-4.2,4.22-7.81,7.35-10.84,3.12-3.03,6.83-5.44,11.13-7.21,4.29-1.77,9-2.66,14.13-2.66s9.7.89,13.99,2.66c4.29,1.77,8,4.18,11.13,7.21,3.13,3.03,5.57,6.65,7.35,10.84,1.77,4.2,2.66,8.73,2.66,13.57s-.89,9.36-2.66,13.51c-1.77,4.15-4.22,7.77-7.35,10.85-3.13,3.08-6.84,5.48-11.13,7.21-4.29,1.73-8.96,2.59-13.99,2.59s-9.84-.86-14.13-2.59c-4.29-1.73-8-4.13-11.13-7.21-3.13-3.08-5.58-6.69-7.35-10.85-1.77-4.15-2.66-8.65-2.66-13.51s.89-9.38,2.66-13.57Zm40.37,31.63c2.38-1.02,4.41-2.4,6.09-4.13,1.68-1.73,3.01-3.8,3.99-6.23.98-2.43,1.47-4.99,1.47-7.7s-.49-5.41-1.47-7.84-2.31-4.5-3.99-6.23c-1.68-1.73-3.71-3.1-6.09-4.13-2.38-1.03-4.97-1.54-7.76-1.54s-5.53.51-7.91,1.54c-2.38,1.03-4.41,2.4-6.09,4.13-1.68,1.73-3.01,3.8-3.99,6.23-.98,2.43-1.47,5.04-1.47,7.84s.49,5.27,1.47,7.7c.98,2.43,2.31,4.5,3.99,6.23,1.68,1.73,3.71,3.1,6.09,4.13,2.38,1.03,5.01,1.54,7.91,1.54s5.39-.51,7.76-1.54Z"/>
          <path class="cls-2" d="m457.23,891.01c.19,1.87.7,3.48,1.54,4.83.84,1.35,1.89,2.47,3.15,3.36,1.26.89,2.66,1.54,4.2,1.96,1.54.42,3.15.63,4.83.63,1.49,0,2.91-.16,4.27-.49,1.35-.33,2.54-.79,3.57-1.4,1.02-.61,1.86-1.38,2.52-2.31.65-.93.98-2,.98-3.22,0-1.4-.37-2.56-1.12-3.5-.75-.93-1.82-1.7-3.22-2.31-1.4-.61-3.06-1.12-4.97-1.54s-4.04-.82-6.37-1.19c-2.52-.56-5.16-1.16-7.91-1.82s-5.25-1.66-7.49-3.01-4.08-3.13-5.53-5.32c-1.45-2.19-2.17-5.01-2.17-8.47,0-3.64.77-6.76,2.31-9.38,1.54-2.61,3.57-4.76,6.09-6.44s5.36-2.91,8.54-3.71c3.17-.79,6.39-1.19,9.66-1.19s6.62.47,9.8,1.4c3.17.93,5.97,2.31,8.4,4.13,2.43,1.82,4.43,4.11,6.02,6.86,1.59,2.75,2.43,6,2.52,9.73h-14.97c-.19-1.49-.65-2.82-1.4-3.99-.75-1.16-1.7-2.14-2.87-2.94-1.17-.79-2.45-1.4-3.85-1.82-1.4-.42-2.89-.63-4.48-.63-1.31,0-2.59.16-3.85.49-1.26.33-2.38.77-3.36,1.33-.98.56-1.8,1.26-2.45,2.1-.65.84-.98,1.82-.98,2.94,0,.93.25,1.75.77,2.45.51.7,1.28,1.33,2.31,1.89,1.03.56,2.36,1.07,3.99,1.54,1.63.47,3.57.93,5.81,1.4,2.98.56,6.04,1.17,9.16,1.82,3.13.66,5.97,1.66,8.54,3.01,2.56,1.35,4.69,3.17,6.37,5.46,1.68,2.29,2.52,5.39,2.52,9.31,0,3.64-.84,6.84-2.52,9.58-1.68,2.75-3.83,5.06-6.44,6.93-2.61,1.87-5.62,3.24-9.03,4.13-3.41.88-6.88,1.33-10.42,1.33s-6.95-.49-10.22-1.47c-3.27-.98-6.18-2.47-8.75-4.48-2.57-2-4.62-4.5-6.16-7.49-1.54-2.98-2.31-6.48-2.31-10.5h14.97Z"/>
          <path class="cls-2" d="m534.12,912.21c-3.59-1.73-6.51-4.04-8.74-6.93v35.4h-16.09v-92.92h14.42l1.12,8.96c2.05-3.17,4.92-5.69,8.61-7.56,3.68-1.87,8.28-2.8,13.78-2.8,4.76,0,9.14.86,13.15,2.59,4.01,1.73,7.46,4.11,10.36,7.14,2.89,3.03,5.15,6.67,6.79,10.91,1.63,4.25,2.45,8.89,2.45,13.93s-.82,9.49-2.45,13.64c-1.63,4.15-3.9,7.75-6.79,10.78-2.89,3.03-6.3,5.36-10.22,7-3.92,1.63-8.21,2.45-12.87,2.45-5.41,0-9.91-.86-13.51-2.59Zm18.75-13.09c2.38-1.02,4.38-2.42,6.02-4.2,1.63-1.77,2.91-3.87,3.85-6.3.93-2.43,1.4-4.99,1.4-7.7s-.47-5.44-1.4-7.91c-.93-2.47-2.22-4.62-3.85-6.44-1.64-1.82-3.64-3.29-6.02-4.41-2.38-1.12-5.02-1.68-7.91-1.68s-5.55.56-7.98,1.68c-2.43,1.12-4.5,2.59-6.23,4.41-1.73,1.82-3.08,3.97-4.06,6.44-.98,2.47-1.47,5.11-1.47,7.91s.49,5.27,1.47,7.7c.98,2.43,2.33,4.53,4.06,6.3,1.73,1.77,3.8,3.17,6.23,4.2,2.42,1.03,5.08,1.54,7.98,1.54s5.53-.51,7.91-1.54Z"/>
          <path class="cls-2" d="m600.53,874.08h37.09c-.28-2.24-.96-4.24-2.03-6.02-1.07-1.77-2.43-3.27-4.06-4.48-1.63-1.21-3.45-2.14-5.46-2.8-2.01-.65-4.04-.98-6.09-.98-2.99,0-5.62.54-7.91,1.61-2.29,1.07-4.18,2.54-5.67,4.41-1.49,1.87-2.61,4.04-3.36,6.51-.75,2.47-1.12,5.11-1.12,7.91,0,2.99.4,5.74,1.19,8.26.79,2.52,1.98,4.69,3.57,6.51,1.58,1.82,3.55,3.24,5.88,4.27,2.33,1.03,5.08,1.54,8.26,1.54,3.55,0,6.6-.7,9.16-2.1,2.56-1.4,4.64-3.45,6.23-6.16l16.37-.14c-2.24,7-6.28,12.48-12.11,16.44-5.83,3.96-12.76,5.95-20.78,5.95-5.41,0-10.22-.96-14.41-2.87-4.2-1.91-7.7-4.45-10.49-7.63-2.8-3.17-4.92-6.81-6.37-10.91s-2.17-8.35-2.17-12.74.74-8.77,2.24-12.87,3.66-7.74,6.51-10.92c2.85-3.17,6.37-5.71,10.56-7.63,4.2-1.91,9.05-2.87,14.55-2.87,5.04,0,9.61.79,13.71,2.38,4.11,1.59,7.63,3.85,10.57,6.79,2.94,2.94,5.2,6.44,6.79,10.5,1.58,4.06,2.38,8.51,2.38,13.36,0,1.03-.02,1.96-.07,2.8-.05.84-.16,1.68-.35,2.52h-52.9l.28-10.64Z"/>
          <path class="cls-2" d="m727.59,888.63c-.84,3.92-2.26,7.51-4.27,10.78-2.01,3.27-4.45,6.02-7.35,8.25-2.89,2.24-6.18,3.99-9.86,5.25-3.69,1.26-7.58,1.89-11.69,1.89-4.95,0-9.54-.86-13.78-2.59-4.25-1.73-7.91-4.13-10.98-7.21-3.08-3.08-5.51-6.69-7.28-10.85-1.77-4.15-2.66-8.7-2.66-13.64s.89-9.35,2.66-13.51c1.77-4.15,4.2-7.77,7.28-10.84,3.08-3.08,6.74-5.48,10.98-7.21,4.24-1.73,8.84-2.59,13.78-2.59,3.82,0,7.58.61,11.27,1.82,3.68,1.21,7.02,2.94,10,5.18,2.98,2.24,5.53,4.92,7.63,8.05,2.1,3.13,3.43,6.65,3.99,10.57h-15.81c-1.4-3.45-3.62-6.2-6.65-8.26-3.03-2.05-6.51-3.08-10.42-3.08-2.71,0-5.2.51-7.49,1.54-2.29,1.03-4.27,2.45-5.95,4.27-1.68,1.82-3.01,3.94-3.99,6.37-.98,2.43-1.47,5.04-1.47,7.84s.49,5.41,1.47,7.84c.98,2.43,2.31,4.53,3.99,6.3,1.68,1.77,3.69,3.17,6.02,4.2,2.33,1.03,4.8,1.54,7.42,1.54,3.92,0,7.37-1.05,10.36-3.15,2.98-2.1,5.22-5.01,6.72-8.74h16.09Z"/>
          <path class="cls-2" d="m730.25,847.77h11.89v-18.19l15.67-3.08v21.27h20.43v13.44h-20.43v27.85c0,4.39,1.28,7.4,3.85,9.03,2.56,1.63,5.81,2.45,9.73,2.45.84,0,1.7-.05,2.59-.14.89-.09,1.7-.23,2.45-.42v14c-1.21.28-2.59.51-4.13.7-1.54.19-2.96.28-4.27.28-3.92,0-7.49-.49-10.71-1.47-3.22-.98-5.95-2.49-8.19-4.55-2.24-2.05-4.01-4.66-5.32-7.84-1.31-3.17-1.96-6.95-1.96-11.34v-28.55h-11.62v-13.44Z"/>
          <path class="cls-2" d="m797.98,891.01c.19,1.87.7,3.48,1.54,4.83.84,1.35,1.89,2.47,3.15,3.36,1.26.89,2.66,1.54,4.2,1.96,1.54.42,3.15.63,4.83.63,1.49,0,2.91-.16,4.27-.49,1.35-.33,2.54-.79,3.57-1.4,1.02-.61,1.86-1.38,2.52-2.31.65-.93.98-2,.98-3.22,0-1.4-.37-2.56-1.12-3.5-.75-.93-1.82-1.7-3.22-2.31-1.4-.61-3.06-1.12-4.97-1.54-1.91-.42-4.04-.82-6.37-1.19-2.52-.56-5.16-1.16-7.91-1.82-2.75-.65-5.25-1.66-7.49-3.01s-4.08-3.13-5.53-5.32c-1.45-2.19-2.17-5.01-2.17-8.47,0-3.64.77-6.76,2.31-9.38,1.54-2.61,3.57-4.76,6.09-6.44s5.36-2.91,8.54-3.71c3.17-.79,6.39-1.19,9.66-1.19s6.62.47,9.8,1.4c3.17.93,5.97,2.31,8.4,4.13,2.43,1.82,4.43,4.11,6.02,6.86,1.59,2.75,2.43,6,2.52,9.73h-14.97c-.19-1.49-.65-2.82-1.4-3.99-.75-1.16-1.7-2.14-2.87-2.94-1.17-.79-2.45-1.4-3.85-1.82-1.4-.42-2.89-.63-4.48-.63-1.31,0-2.59.16-3.85.49-1.26.33-2.38.77-3.36,1.33-.98.56-1.8,1.26-2.45,2.1s-.98,1.82-.98,2.94c0,.93.25,1.75.77,2.45.51.7,1.28,1.33,2.31,1.89,1.03.56,2.36,1.07,3.99,1.54,1.63.47,3.57.93,5.81,1.4,2.98.56,6.04,1.17,9.16,1.82,3.13.66,5.97,1.66,8.54,3.01,2.56,1.35,4.69,3.17,6.37,5.46,1.68,2.29,2.52,5.39,2.52,9.31,0,3.64-.84,6.84-2.52,9.58-1.68,2.75-3.83,5.06-6.44,6.93-2.61,1.87-5.62,3.24-9.03,4.13-3.41.88-6.88,1.33-10.42,1.33s-6.95-.49-10.22-1.47c-3.27-.98-6.18-2.47-8.75-4.48-2.57-2-4.62-4.5-6.16-7.49-1.54-2.98-2.31-6.48-2.31-10.5h14.97Z"/>
        </g>
      </g>
      <g>
        <rect class="cls-2" x="231.53" y="168.32" width="616.94" height="616.94" rx="61.13" ry="61.13"/>
        <polygon class="cls-3" points="605.9 436.48 511.8 342.38 605.9 248.27 605.9 436.48"/>
        <rect class="cls-3" x="445.26" y="181.74" width="133.08" height="133.08" transform="translate(-25.65 434.62) rotate(-45)"/>
        <polygon class="cls-3" points="417.7 248.27 511.8 154.17 417.7 60.07 417.7 248.27"/>
        <polygon class="cls-1" points="417.7 168.32 417.7 354.49 231.53 540.66 231.53 354.49 324.62 261.4 417.7 168.32"/>
        <g>
          <path class="cls-1" d="m371.35,686.88v-236.61h59.53l5.04,41.37c5.71-14.8,14.88-26.24,27.5-34.31,12.61-8.07,28-12.11,46.16-12.11,3.36,0,6.47.17,9.33.5,2.85.34,4.96.84,6.31,1.52v61.05c-1.01-.33-2.95-.76-5.8-1.26-2.86-.5-5.63-.76-8.32-.76-11.44,0-21.61,1.85-30.52,5.55-8.92,3.71-16.48,8.92-22.7,15.64-6.23,6.73-11.02,14.81-14.38,24.22-3.37,9.42-5.04,20.01-5.04,31.78v103.42h-67.1Z"/>
          <path class="cls-1" d="m653.37,683.6c-12.11-5.55-22.03-13.03-29.77-22.45v124.11h-67.1v-334.99h58.02l4.54,29.76c7.06-10.42,16.9-18.83,29.51-25.22,12.61-6.39,28.67-9.59,48.18-9.59,17.48,0,33.38,3.11,47.67,9.33,14.29,6.23,26.65,14.88,37.08,25.98,10.42,11.1,18.49,24.22,24.22,39.35,5.71,15.14,8.58,31.62,8.58,49.44s-2.86,34.31-8.58,49.44c-5.72,15.13-13.71,28.17-23.96,39.1-10.27,10.93-22.37,19.35-36.33,25.23-13.96,5.88-29.18,8.83-45.66,8.83-18.84,0-34.31-2.77-46.41-8.32Zm59.03-54.49c7.73-3.19,14.29-7.73,19.68-13.62,5.37-5.88,9.58-12.78,12.61-20.69,3.03-7.9,4.54-16.4,4.54-25.48s-1.51-17.57-4.54-25.48c-3.03-7.9-7.24-14.88-12.61-20.94-5.38-6.05-11.94-10.85-19.68-14.38-7.74-3.53-16.32-5.3-25.73-5.3s-18.08,1.77-25.98,5.3c-7.91,3.53-14.63,8.32-20.18,14.38-5.55,6.06-9.84,13.04-12.86,20.94-3.03,7.91-4.54,16.4-4.54,25.48s1.52,17.58,4.54,25.48c3.03,7.91,7.32,14.81,12.86,20.69,5.55,5.89,12.27,10.43,20.18,13.62,7.9,3.2,16.56,4.79,25.98,4.79s17.99-1.59,25.73-4.79Z"/>
        </g>
      </g>
    </g>
  </g>
</svg>